<svg xmlns="http://www.w3.org/2000/svg" width="30" height="30" xmlns:v="https://vecta.io/nano"><defs><linearGradient x1="50%" y1="-2.48949813e-15%" x2="50%" y2="100%" id="A"><stop stop-color="#bbc5d5" offset="0%"/><stop stop-color="#8c94a0" offset="100%"/></linearGradient></defs><g fill-rule="evenodd"><path d="M30 8l-10.77 9.68c-.466.37-.736.923-.736 1.505v4.863c0 1.078-.906 1.95-2.024 1.95H12.42c-1.118 0-2.024-.874-2.024-1.95v-4.863c0-.583-.27-1.135-.736-1.505L0 8h30z" fill="url(#A)" fill-rule="nonzero"/><path d="M2 3h26a2 2 0 0 1 2 2v3H0V5a2 2 0 0 1 2-2z" fill="#5e636b"/></g></svg>