<svg xmlns="http://www.w3.org/2000/svg" width="35" height="70"  xmlns:v="https://vecta.io/nano"><defs><linearGradient x1="50%" y1="0%" x2="50%" y2="100%" id="A"><stop stop-color="#f89b3a" offset="0%"/><stop stop-color="#f77622" offset="100%"/></linearGradient><linearGradient x1="50%" y1="0%" x2="50%" y2="100%" id="B"><stop stop-color="#ffd26b" offset="0%"/><stop stop-color="#ffbd21" offset="100%"/></linearGradient></defs><g fill-rule="nonzero"><path d="M3 0h24a2 2 0 0 1 2 2v26a2 2 0 0 1-2 2H4L3 0z" fill="url(#A)"/><path d="M3 35l7.97 4.428A2 2 0 0 1 12 41.177V68.3a1 1 0 0 1-1.486.874L4.03 65.572A2 2 0 0 1 3 63.823V35z" fill="url(#B)"/></g></svg>