<svg xmlns="http://www.w3.org/2000/svg" width="30" height="60" xmlns:v="https://vecta.io/nano"><defs><linearGradient x1="50%" y1="0%" x2="50%" y2="100%" id="A"><stop stop-color="#f89b3a" offset="0%"/><stop stop-color="#f77622" offset="100%"/></linearGradient><linearGradient x1="50%" y1="0%" x2="50%" y2="100%" id="B"><stop stop-color="#ffd26b" offset="0%"/><stop stop-color="#ffbd21" offset="100%"/></linearGradient></defs><g fill-rule="evenodd"><g fill-rule="nonzero"><path d="M2 3h6a2 2 0 0 1 2 2v1h18a2 2 0 0 1 2 2v17H0V5a2 2 0 0 1 2-2z" fill="url(#A)"/><rect fill="url(#B)" y="8" width="30" height="19" rx="2"/><path d="M2 33h6a2 2 0 0 1 2 2v1h13a2 2 0 0 1 2 2v17H0V35a2 2 0 0 1 2-2z" fill="url(#A)"/></g><path fill="#fff" d="M3 39h19v12H3z"/><g fill-rule="nonzero"><path fill="#00aeee" d="M5 41h15v6H5z"/><path d="M7.195 44h20.68a2 2 0 0 1 1.816 2.838l-4.154 9A2 2 0 0 1 23.72 57H2.348a2 2 0 0 1-1.761-2.948l4.846-9A2 2 0 0 1 7.195 44z" fill="url(#B)"/></g></g></svg>