<?xml version="1.0" encoding="UTF-8"?>
<svg version="1.1" viewBox="0 0 38 28" xmlns="http://www.w3.org/2000/svg">
    <defs>
        <linearGradient id="a" x1="100%" x2="0%" y1="50%" y2="50%">
            <stop stop-color="#007CDB" offset="0"/>
            <stop stop-color="#00AEEE" offset="1"/>
        </linearGradient>
        <linearGradient id="b" x1="50%" x2="50%" y2="100%">
            <stop stop-color="#7CE0FE" offset="0"/>
            <stop stop-color="#59D1FD" offset="1"/>
        </linearGradient>
        <linearGradient id="c" x1="-1.1102e-14%" y1="50%" y2="50%">
            <stop stop-color="#007CDB" offset="0"/>
            <stop stop-color="#00AEEE" offset="1"/>
        </linearGradient>
        <linearGradient id="d" x1="50%" x2="50%" y2="100%">
            <stop stop-color="#92EAFF" offset="0"/>
            <stop stop-color="#77DCFF" offset="1"/>
        </linearGradient>
    </defs>
    <polygon points="0 28 25 28 25 20 12 20" fill="url(#a)"/>
    <polygon points="26 11 34.112 11 38 28 22 28" fill="url(#b)"/>
    <polygon points="13 11 26 11 38 3 13 3" fill="url(#c)"/>
    <path d="m4 0h8c1.1046-2.0291e-16 2 0.89543 2 2v1h2l-4 17h-8l-4-17h2v-1c0-1.1046 0.89543-2 2-2z" fill="url(#d)"/>
</svg>
