<svg xmlns="http://www.w3.org/2000/svg" width="105" height="105"  fill-rule="evenodd" xmlns:v="https://vecta.io/nano"><path d="M63.42 12.233l39.322 68.813c3.288 5.754 1.29 13.084-4.465 16.373A12 12 0 0 1 92.322 99H13.678c-6.627 0-12-5.373-12-12a12 12 0 0 1 1.581-5.954L42.58 12.233C45.87 6.48 53.2 4.48 58.954 7.768a12 12 0 0 1 4.465 4.465z" fill="#f03e3e"/><path d="M56.625 66L58 44H47l1.375 22h8.25zM52.5 82a5.53 5.53 0 0 0 5.5-5.5 5.53 5.53 0 0 0-5.5-5.5 5.53 5.53 0 0 0-5.5 5.5 5.53 5.53 0 0 0 5.5 5.5z" fill="#fff" fill-rule="nonzero"/></svg>